<svg width="32" height="32" viewBox="0 0 32 32" fill="none" xmlns="http://www.w3.org/2000/svg">
<path d="M16 32C24.8366 32 32 24.8366 32 16C32 7.16344 24.8366 0 16 0C7.16344 0 0 7.16344 0 16C0 24.8366 7.16344 32 16 32Z" fill="#E42E95"/>
<path fill-rule="evenodd" clip-rule="evenodd" d="M24.0799 14.97C24.0799 15.46 23.6799 15.86 23.1899 15.86H8.80992C8.31992 15.86 7.91992 15.46 7.91992 14.97C7.91992 14.48 8.31992 14.08 8.80992 14.08H11.9299L13.3599 9.89C13.7499 8.74 14.7899 8 15.9999 8C17.2099 8 18.2499 8.74 18.6399 9.89L20.0699 14.08H23.1899C23.6799 14.08 24.0799 14.48 24.0799 14.97ZM15.9999 9.77C15.8299 9.77 15.2599 9.82 15.0399 10.46L13.7899 14.08H18.1899L16.9599 10.46C16.7499 9.82 16.1699 9.77 15.9999 9.77ZM7.91992 18.79C7.91992 18.3 8.31992 17.9 8.80992 17.9H23.1899C23.6799 17.9 24.0799 18.3 24.0999 18.79C24.0999 19.28 23.6999 19.68 23.2099 19.68H21.9999L23.0699 22.83C23.2299 23.3 22.9799 23.8 22.5199 23.96C22.4199 23.99 22.3299 24.01 22.2299 24.01C21.8599 24.01 21.5199 23.78 21.3899 23.41L20.1199 19.69H11.8999L10.6299 23.41C10.4699 23.87 9.95992 24.12 9.49992 23.96C9.03992 23.8 8.78992 23.29 8.94992 22.83L10.0199 19.68H8.80992C8.31992 19.68 7.91992 19.28 7.91992 18.79Z" fill="white"/>
</svg>
